<?xml version="1.0" encoding="utf-8"?>
<!-- Generator: Adobe Illustrator 15.1.0, SVG Export Plug-In . SVG Version: 6.00 Build 0)  -->
<!DOCTYPE svg PUBLIC "-//W3C//DTD SVG 1.1//EN" "http://www.w3.org/Graphics/SVG/1.1/DTD/svg11.dtd">
<svg version="1.1" id="Layer_1" xmlns="http://www.w3.org/2000/svg" xmlns:xlink="http://www.w3.org/1999/xlink" x="0px" y="0px"
	 width="1280px" height="720px" viewBox="0 0 1280 720" enable-background="new 0 0 1280 720" xml:space="preserve">
<rect x="772" y="90.154" fill="#685C59" width="53" height="53"/>
<rect x="845" y="90.154" fill="#6B625F" width="53" height="53"/>
<rect x="917" y="90.154" fill="#77706D" width="53" height="53"/>
<rect x="991" y="90.154" fill="#827B78" width="53" height="53"/>
<rect x="991" y="158.419" fill="#827B78" width="53" height="53"/>
<rect x="1064" y="90.154" fill="#918C88" width="53" height="53"/>
<rect x="335" y="90.154" fill="#30251D" width="53" height="53"/>
<rect x="408" y="90.154" fill="#3F3329" width="53" height="53"/>
<rect x="481" y="90.154" fill="#4F4136" width="53" height="53"/>
<rect x="554" y="90.154" fill="#544339" width="53" height="53"/>
<rect x="627" y="90.154" fill="#59483D" width="53" height="53"/>
<rect x="700" y="90.154" fill="#66564E" width="53" height="53"/>
<g>
	
		<text transform="matrix(1 0 0 1 219.0015 129.9434)" fill="#3F3329" font-family="'EBGaramond'" font-size="50" letter-spacing="1">Date</text>
</g>
<rect x="772" y="510" fill="#34718C" width="53" height="53"/>
<rect x="845" y="510" fill="#39849E" width="53" height="53"/>
<rect x="918" y="510" fill="#4899AF" width="53" height="53"/>
<rect x="991" y="510" fill="#56A3BA" width="53" height="53"/>
<rect x="1136" y="90.154" fill="#99938F" width="53" height="53"/>
<rect x="1210" y="90.154" fill="#A39F9B" width="53" height="53"/>
<rect x="772" y="158.419" fill="#685C59" width="53" height="53"/>
<rect x="917" y="158.419" fill="#77706D" width="53" height="53"/>
<rect x="1064" y="158.419" fill="#918C88" width="53" height="53"/>
<rect x="335" y="158.419" fill="#30251D" width="53" height="53"/>
<rect x="481" y="158.419" fill="#4F4136" width="53" height="53"/>
<rect x="627" y="158.419" fill="#59483D" width="53" height="53"/>
<rect x="700" y="158.419" fill="#66564E" width="53" height="53"/>
<rect x="1210" y="158.419" fill="#A39F9B" width="53" height="53"/>
<rect x="1137" y="510" fill="#76BCCC" width="53" height="53"/>
<rect x="1210" y="510" fill="#85C3D6" width="53" height="53"/>
<rect x="1064" y="510" fill="#65AEC4" width="53" height="53"/>
<rect x="335" y="510" fill="#0B104F" width="53" height="53"/>
<rect x="408" y="510" fill="#12285E" width="53" height="53"/>
<rect x="480" y="510" fill="#103159" width="53" height="53"/>
<rect x="554" y="510" fill="#1B3F66" width="53" height="53"/>
<rect x="627" y="510" fill="#25527A" width="53" height="53"/>
<rect x="700" y="510" fill="#2B5D82" width="53" height="53"/>
<rect x="991" y="579.061" fill="#56A3BA" width="53" height="53"/>
<rect x="1137" y="579.061" fill="#76BCCC" width="53" height="53"/>
<rect x="408" y="579.061" fill="#12285E" width="53" height="53"/>
<rect x="700" y="579.061" fill="#2B5D82" width="53" height="53"/>
<g>
	<text transform="matrix(1 0 0 1 10.9033 549.9434)" fill="#3F3329" font-family="'EBGaramond'" font-size="50" letter-spacing="1">Precision Time</text>
</g>
<rect x="772" y="297" fill="#F4B17A" width="53" height="53"/>
<rect x="335" y="297" fill="#12285E" width="53" height="53"/>
<rect x="408" y="297" fill="#38131F" width="53" height="53"/>
<rect x="481" y="297" fill="#6D0606" width="53" height="53"/>
<rect x="554" y="297" fill="#7F230A" width="53" height="53"/>
<rect x="627" y="297" fill="#9B3A10" width="53" height="53"/>
<rect x="700" y="297" fill="#EA852A" width="53" height="53"/>
<g>
	<text transform="matrix(1 0 0 1 52.0039 336.9434)" fill="#3F3329" font-family="'EBGaramond'" font-size="50" letter-spacing="1">Time-of-Day</text>
</g>
</svg>
