<?xml version="1.0" encoding="utf-8"?>
<!-- Generator: Adobe Illustrator 19.1.0, SVG Export Plug-In . SVG Version: 6.00 Build 0)  -->
<svg version="1.1" xmlns="http://www.w3.org/2000/svg" xmlns:xlink="http://www.w3.org/1999/xlink" x="0px" y="0px"
	 viewBox="0 0 720 1280" style="enable-background:new 0 0 720 1280;" xml:space="preserve">
<style type="text/css">
	.st0{fill:#E5E2E1;}
	.st1{fill:#3F3329;}
	.st2{font-family:'EBGaramond';}
	.st3{font-size:90px;}
	.st4{fill:#605A55;}
	.st5{font-size:36px;}
	.st6{font-size:50px;}
	.st7{letter-spacing:1;}
	.st8{fill:none;stroke:#999593;stroke-width:3;stroke-miterlimit:10;}
	.st9{fill:#594B3B;}
	.st10{fill:#999593;}
	.st11{fill:#C1BFBC;}
	.st12{font-family:'Dnifont-Regular';}
	.st13{font-size:34px;}
	.st14{letter-spacing:-4;}
	.st15{font-size:22px;}
	.st16{letter-spacing:-2;}
</style>
<g id="Layer_1">
	<rect class="st0" width="720" height="1280"/>
</g>
<g id="Layer_2">
	<text transform="matrix(1 0 0 1 456.0049 1194.7275)"><tspan x="0" y="0" class="st1 st2 st3">9671</tspan><tspan x="153.4" y="0" class="st4 st2 st5"> DE</tspan></text>
	<g>
		<text transform="matrix(1 0 0 1 58.7583 1161.4463)"><tspan x="0" y="0" class="st1 st2 st6 st7">Leevosahn 27</tspan><tspan x="271.4" y="0" class="st4 st2 st5">,  </tspan><tspan x="296.8" y="0" class="st1 st2 st6 st7">4</tspan><tspan x="322.6" y="0" class="st4 st2 st5"> : </tspan><tspan x="348.6" y="0" class="st1 st2 st6 st7">1</tspan></text>
	</g>
	<g>
		<text transform="matrix(1 0 0 1 58.7583 1214.3672)"><tspan x="0" y="0" class="st1 st2 st6 st7">2</tspan><tspan x="22.4" y="0" class="st4 st2 st5"> : </tspan><tspan x="48.4" y="0" class="st1 st2 st6 st7">13</tspan><tspan x="83.9" y="0" class="st4 st2 st5"> : </tspan><tspan x="110" y="0" class="st1 st2 st6 st7">18</tspan></text>
	</g>
	<g>
		<line class="st8" x1="358.5" y1="365" x2="358.5" y2="43"/>
		<line class="st8" x1="358.5" y1="365" x2="358.5" y2="43"/>
		<g>
			<path class="st9" d="M359.8,192.8c-0.5,0-0.8,0-1.8,0v55c1,0,1.2,0,1.8,0c64.5,0,117.1,52.5,117.1,117c0,64.5-52.4,117-116.9,117
				c-64.5,0-117-52.5-117-117c0-12,1.8-23.6,5.2-34.5l-52.3-16.9c-5.1,16.2-7.8,33.5-7.8,51.3c0,94.8,77.2,172,172,172
				c94.8,0,171.9-77.2,171.9-172C531.9,269.9,454.6,192.8,359.8,192.8z"/>
		</g>
		<g>
			<path class="st9" d="M584,140.8C524.1,81,444.4,48,359.8,48c-0.5,0-0.8,0-1.8,0v55c1,0,1.2,0,1.8,0
				c144.3,0,261.9,117.4,261.9,261.7S504.3,626.5,359.9,626.5S98.2,509.1,98.2,364.8c0-25.8,3.8-50.8,10.8-74.4l-52.8-15.8
				c-8.5,28.9-13,59.2-13,90.2c0,84.6,32.9,164.1,92.8,224c59.8,59.8,139.4,92.8,224,92.8s164.1-32.9,224-92.8
				c59.8-59.8,92.8-139.4,92.8-224C676.7,280.2,643.8,200.6,584,140.8z"/>
		</g>
		<g>
			<path class="st9" d="M532.7,192.1c-46.1-46.1-107.7-71.5-173-71.5c-0.5,0-0.8,0-1.8,0v55c1,0,1.2,0,1.8,0
				c104.3,0,189.4,84.9,189.4,189.2S464.3,554,359.9,554c-104.3,0-189.2-84.9-189.2-189.2c0-73.8,42.5-137.9,104.3-169.1l-24.4-49.4
				c-23.1,11.6-44.5,27-63.3,45.8c-46.1,46.1-71.5,107.5-71.5,172.7s25.4,126.6,71.5,172.7C233.4,583.6,294.8,609,360,609
				c65.2,0,126.6-25.4,172.7-71.5c46.1-46.1,71.5-107.5,71.5-172.7S578.8,238.2,532.7,192.1z"/>
		</g>
		<circle class="st10" cx="358.7" cy="364.5" r="3.7"/>
		<text transform="matrix(1 0 0 1 365.248 91.6187)" class="st11 st12 st13 st14">8</text>
		<text transform="matrix(1 0 0 1 365.248 165.1152)" class="st11 st12 st13 st14">12</text>
		<g>
			<path class="st9" d="M359.8,319.4c20.4,0,37.8,13.6,43.5,32.1l52.4-16.9c-12.8-40.7-51.1-70.3-96-70.3c-0.5,0-0.7,0-1.7,0v55
				C359,319.5,359.2,319.4,359.8,319.4z"/>
		</g>
		<text transform="matrix(1 0 0 1 365.248 238.1113)" class="st11 st12 st13 st14">4</text>
		<text transform="matrix(1 0 0 1 365.248 308.6079)" class="st11 st12 st13 st14">1</text>
	</g>
	<g>
		<line class="st8" x1="358.5" y1="895" x2="358.5" y2="735"/>
		<line class="st8" x1="358.5" y1="895" x2="358.5" y2="732"/>
		<g>
			<path class="st9" d="M359.8,827.3c-0.5,0-0.8,0-1.8,0v35c1,0,1.2,0,1.8,0c16.7,0,30.3,13.6,30.3,30.2s-13.5,30.2-30.2,30.2
				c-14.2,0-26.1-9.9-29.3-23.1l-34.3,6.7c6.4,29.3,32.5,51.4,63.7,51.4c36,0,65.1-29.3,65.1-65.2S395.7,827.3,359.8,827.3z"/>
		</g>
		<g>
			<path class="st9" d="M359.8,780.4c-0.5,0-0.8,0-1.8,0v35c1,0,1.2,0,1.8,0c42.5,0,77.3,34.6,77.3,77.1c0,42.5-34.5,77.1-77.1,77.1
				c-3.7,0-7.2-0.3-10.7-0.8l-4.5,34.7c5,0.7,10.1,1.1,15.3,1.1c61.8,0,112-50.3,112-112.1S421.6,780.4,359.8,780.4z"/>
		</g>
		<g>
			<path class="st9" d="M519.5,892.5c0-87.9-71.8-159.5-159.7-159.5c-0.5,0-0.8,0-1.8,0v35c1,0,1.2,0,1.8,0
				c68.6,0,124.6,55.8,124.6,124.5c0,42.4-21.3,79.9-53.7,102.4l20.5,28.4C492.4,994.5,519.5,946.6,519.5,892.5z"/>
		</g>
		<text transform="matrix(1 0 0 1 365.248 761.1206)" class="st11 st12 st15 st16">2</text>
		<text transform="matrix(1 0 0 1 365.248 808.6172)" class="st11 st12 st15 st16">#</text>
		<text transform="matrix(1 0 0 1 365.248 855.6133)" class="st11 st12 st15 st16">*</text>
		<circle class="st10" cx="358.7" cy="894.5" r="3.7"/>
	</g>
</g>
</svg>
